<svg id="svg" xmlns="http://www.w3.org/2000/svg" xmlns:xlink="http://www.w3.org/1999/xlink" width="400" height="400" viewBox="0, 0, 400,400" version="1.1"><g id="svgg"><path id="path0" d="M195.256 1.451 L 193.464 2.902 193.638 50.475 L 193.812 98.047 195.778 99.805 C 198.232 102.000,201.509 102.054,204.192 99.943 L 206.250 98.324 206.250 55.736 L 206.250 13.148 212.305 13.652 C 364.263 26.298,439.787 199.581,344.768 317.578 C 274.895 404.349,143.853 409.994,66.002 329.587 C -3.085 258.232,-4.305 146.552,63.200 73.122 C 70.547 65.130,71.098 63.941,69.177 60.227 C 66.105 54.285,61.244 55.306,53.340 63.553 C -2.625 121.946,-16.302 213.982,20.003 287.891 C 81.208 412.492,247.747 438.965,343.764 339.355 C 446.238 233.046,402.989 56.267,263.155 9.863 C 238.222 1.589,200.810 -3.046,195.256 1.451 M130.469 127.573 C 128.048 128.798,126.364 132.147,126.970 134.532 C 127.671 137.293,190.162 223.391,194.136 227.072 C 208.555 240.426,232.813 229.826,232.813 210.171 C 232.813 197.099,232.498 196.793,180.620 159.372 C 131.182 123.711,134.254 125.659,130.469 127.573 M191.566 183.455 C 220.106 204.141,221.133 205.146,219.987 211.255 C 218.565 218.838,209.146 222.749,203.389 218.147 C 202.091 217.109,166.512 168.658,163.662 164.047 C 162.761 162.589,163.155 162.863,191.566 183.455 " stroke="none" fill="#000000" fill-rule="evenodd"></path></g></svg>